# xmcd CD database file generated by OrangeCD 6.5
#
# Track frame offsets:
#	150
#	14069
#	30019
#	42662
#	57831
#	73478
#	89006
#	106287
#	121355
#	135572
#	149527
#	163878
#	178029
#
# Disc length: 2538 seconds
#
# Revision: 0
# Processed by: cddbd v1.5.2PL0 Copyright (c) Steve Scherf et al.
# Submitted via: OrangeCD 6.5
#
DISCID=c309e80d
DTITLE=Buddy Mondlock - The Memory Wall
DYEAR=2013
DGENRE=
TTITLE0=The Ugly One
TTITLE1=The Holes You Leave
TTITLE2=Some Kind Of Hope
TTITLE3=Stone In My Pocket
TTITLE4=A Canary's Song
TTITLE5=The Disappearing Girl
TTITLE6=Crooked Scars
TTITLE7=Quoddy Point
TTITLE8=Let Me Go
TTITLE9=What Do I Know
TTITLE10=Lost In Space
TTITLE11=Central Park
TTITLE12=Stay Up All Night
EXTD=
EXTT0=
EXTT1=
EXTT2=
EXTT3=
EXTT4=
EXTT5=
EXTT6=
EXTT7=
EXTT8=
EXTT9=
EXTT10=
EXTT11=
EXTT12=
PLAYORDER=
